<svg id="Layer_1" data-name="Layer 1" xmlns="http://www.w3.org/2000/svg" viewBox="0 0 534.71 711"><defs><style>.cls-1{fill:#00a4e4;}.cls-2{fill:#057fa5;}.cls-3{fill:none;stroke:#00a4e4;stroke-miterlimit:10;stroke-width:16.64px;}</style></defs><title>icon-1-2</title><rect class="cls-1" x="127.84" y="93.83" width="97.66" height="97.66" transform="translate(30.61 -31.21) rotate(11.05)"/><circle class="cls-1" cx="301.6" cy="45.05" r="45.04"/><polygon class="cls-1" points="308.85 245.87 277.35 144.41 381.6 164.84 308.85 245.87"/><path class="cls-2" d="M219.12,711c-7.39,0-.37-.31-2.79-.31H4.47A4.47,4.47,0,0,1,0,706.22V337.32a4.47,4.47,0,0,1,4.47-4.47H30a4.48,4.48,0,0,1,4.48,4.47v331A4.47,4.47,0,0,0,39,672.78H260.26a4.49,4.49,0,0,1,4.48,4.48v0a4.48,4.48,0,0,1,4.47-4.48H486.48a4.47,4.47,0,0,0,4.47-4.47V332.08a4.47,4.47,0,0,1,4.48-4.47h34.81a4.47,4.47,0,0,1,4.47,4.47V706.53a4.47,4.47,0,0,1-4.47,4.47H207.41"/><path class="cls-3" d="M67.93,286.62H195.81a69.24,69.24,0,0,1,69.24,69.23V653.37h0a131.54,131.54,0,0,0-93-38.53H34.83l1.23-298.33C35.66,300.23,51.64,286.62,67.93,286.62Z"/><path class="cls-3" d="M461.65,286.62H333.76a69.24,69.24,0,0,0-69.23,69.23V653.37h0a131.52,131.52,0,0,1,93-38.53H491l-.32-298.52A29,29,0,0,0,461.65,286.62Z"/><rect class="cls-1" x="79.51" y="342.71" width="128.82" height="88.76" rx="7.4"/><rect class="cls-1" x="313.12" y="342.71" width="136.84" height="221.9" rx="12.05"/><rect class="cls-1" x="79.51" y="454.89" width="128.82" height="17.26"/><rect class="cls-1" x="79.51" y="485.71" width="128.82" height="17.26"/><rect class="cls-1" x="79.51" y="516.53" width="128.82" height="17.26"/><rect class="cls-1" x="79.51" y="547.35" width="128.82" height="17.26"/></svg>