<svg id="Layer_1" data-name="Layer 1" xmlns="http://www.w3.org/2000/svg" viewBox="0 0 583.64 508"><defs><style>.cls-1,.cls-3{fill:#fff;}.cls-1,.cls-3,.cls-5{stroke:#00a4e4;stroke-miterlimit:10;}.cls-1{stroke-width:18.52px;}.cls-2{fill:#00a4e4;}.cls-3{stroke-width:19.88px;}.cls-4,.cls-5{fill:none;}.cls-5{stroke-width:10.1px;}</style></defs><title>icon2</title><rect class="cls-1" x="81.26" y="111.83" width="275.06" height="340.04" rx="13.29" transform="translate(-126.84 193.28) rotate(-37.81)"/><rect class="cls-2" x="215.8" y="404.29" width="255.87" height="29.96" rx="3.81" transform="translate(-184.86 298.72) rotate(-37.81)"/><rect class="cls-2" x="287.52" y="41.78" width="40.4" height="211.77" rx="4.02" transform="translate(-25.92 219.62) rotate(-37.81)"/><rect class="cls-2" x="137.51" y="167.43" width="115.82" height="10.94" rx="1.55" transform="translate(-64.96 156.08) rotate(-37.81)"/><rect class="cls-2" x="158.76" y="194.82" width="115.82" height="10.94" rx="1.55" transform="translate(-77.3 174.86) rotate(-37.81)"/><rect class="cls-2" x="192.4" y="238.18" width="115.82" height="10.94" rx="1.55" transform="translate(-96.81 204.58) rotate(-37.81)"/><rect class="cls-2" x="215.87" y="274.06" width="79.12" height="10.94" rx="1.28" transform="translate(-117.73 215.25) rotate(-37.81)"/><rect class="cls-2" x="253.2" y="326.17" width="59.59" height="10.94" rx="1.11" transform="translate(-143.89 243.09) rotate(-37.81)"/><rect class="cls-2" x="272.66" y="352.69" width="51.17" height="10.94" rx="1.03" transform="translate(-156.95 258) rotate(-37.81)"/><circle class="cls-3" cx="382.06" cy="304.2" r="88.54"/><rect class="cls-2" x="480.4" y="322.18" width="31.31" height="103.02" transform="translate(-71.24 626.46) rotate(-61.01)"/><rect class="cls-2" x="506.82" y="341.94" width="50.5" height="103.02" rx="15.92" transform="translate(-69.97 668.14) rotate(-61.01)"/><rect class="cls-2" x="333.87" y="-19.4" width="16.83" height="201.67" rx="8.42" transform="translate(21.93 226.91) rotate(-37.81)"/><rect class="cls-2" x="130.79" y="385" width="10.15" height="121.63" rx="5.08" transform="translate(-244.76 176.86) rotate(-37.81)"/><rect class="cls-2" x="34.17" y="346.62" width="10.15" height="121.63" rx="5.08" transform="translate(-241.51 109.58) rotate(-37.81)"/><rect class="cls-2" x="402.12" y="51.36" width="10.15" height="121.63" rx="5.08" transform="translate(16.71 273.15) rotate(-37.81)"/><line class="cls-4" x1="49.21" y1="243.68" x2="50.56" y2="243.68"/><line class="cls-4" x1="117.22" y1="253.78" x2="118.68" y2="253.78"/><rect class="cls-5" x="76.04" y="220.44" width="65.31" height="65.31" rx="13.29" transform="translate(-132.33 119.76) rotate(-37.81)"/><rect class="cls-5" x="131.35" y="291.73" width="65.31" height="65.31" rx="13.29" transform="translate(-164.42 168.63) rotate(-37.81)"/><rect class="cls-5" x="186.66" y="363.02" width="65.31" height="65.31" rx="13.29" transform="translate(-196.51 217.49) rotate(-37.81)"/></svg>