<svg id="Layer_1" data-name="Layer 1" xmlns="http://www.w3.org/2000/svg" viewBox="0 0 383.72 495.41"><defs><style>.cls-1{fill:#00a4e4;}.cls-2{fill:none;stroke:#00a4e4;stroke-miterlimit:10;stroke-width:29.18px;}.cls-3{fill:#fff;}</style></defs><title>icon4</title><g id="book"><path id="Path_338" data-name="Path 338" class="cls-1" d="M102.49,83.49H48.25A39.76,39.76,0,0,0,8.51,122.23L0,454.64a39.75,39.75,0,0,0,38.73,40.75l1,0h62.74Z"/><path id="Path_339" data-name="Path 339" class="cls-1" d="M344,83.49H128V495.4H344a39.75,39.75,0,0,0,39.75-39.75V123.24A39.75,39.75,0,0,0,344,83.49Z"/><path id="Path_340" data-name="Path 340" class="cls-2" d="M21.43,258.4C9.61-60.61,23,74.32,323.78,15A21.85,21.85,0,0,1,349.7,39.32L338,107.05"/><rect id="Rectangle_1536" data-name="Rectangle 1536" class="cls-3" x="169.72" y="136.44" width="179.9" height="145.25" rx="9.99"/><rect id="Rectangle_1537" data-name="Rectangle 1537" class="cls-3" x="169.72" y="313.56" width="155.23" height="19.96"/><rect id="Rectangle_1538" data-name="Rectangle 1538" class="cls-3" x="169.72" y="351.82" width="155.23" height="19.96"/><rect id="Rectangle_1539" data-name="Rectangle 1539" class="cls-3" x="169.72" y="390.07" width="155.23" height="19.96"/><rect id="Rectangle_1540" data-name="Rectangle 1540" class="cls-3" x="169.72" y="432.2" width="155.23" height="19.96"/></g></svg>