<svg id="Layer_1" data-name="Layer 1" xmlns="http://www.w3.org/2000/svg" viewBox="0 0 541.77 432.94"><defs><style>.cls-1{fill:#00a4e4;}.cls-2{fill:#fff;}</style></defs><title>icon1</title><path class="cls-1" d="M292.93,356.73v32.33a14.62,14.62,0,0,1-14.62,14.62H103.47A14.64,14.64,0,0,0,93.13,408L72.46,428.63a14.62,14.62,0,0,1-24.95-10.34h0a14.61,14.61,0,0,0-14.62-14.61H14.62A14.62,14.62,0,0,1,0,389.06V213.89a14.62,14.62,0,0,1,14.62-14.62H41.1a14.62,14.62,0,0,1,14.61,14.62v113a14.62,14.62,0,0,0,14.58,14.62l208.07.6A14.62,14.62,0,0,1,292.93,356.73Z"/><path class="cls-1" d="M122.66,0H505a36.8,36.8,0,0,1,36.8,36.8V275.4a37,37,0,0,1-37,37H122.7a36.91,36.91,0,0,1-36.91-36.91V36.87A36.87,36.87,0,0,1,122.66,0Z"/><path class="cls-1" d="M379.41,297l73.27,73.27a8.14,8.14,0,0,0,13.89-5.76V297Z"/><circle class="cls-2" cx="228.5" cy="116.03" r="48.69"/><path class="cls-2" d="M301.3,245.08a84.6,84.6,0,0,0,.44-8.62c0-43.42-32.79-78.61-73.24-78.61S155.26,193,155.26,236.46a84.6,84.6,0,0,0,.44,8.62Z"/><circle class="cls-2" cx="403.93" cy="116.03" r="48.69"/><path class="cls-2" d="M476.73,245.08a84.6,84.6,0,0,0,.44-8.62c0-43.42-32.79-78.61-73.24-78.61S330.69,193,330.69,236.46a84.6,84.6,0,0,0,.44,8.62Z"/></svg>