<svg id="Layer_1" data-name="Layer 1" xmlns="http://www.w3.org/2000/svg" viewBox="0 0 503.69 505.01"><defs><style>.cls-1{fill:#057fa5;}.cls-2{fill:#00a4e4;}.cls-3{fill:none;stroke:#00a4e4;stroke-miterlimit:10;stroke-width:27.1px;}</style></defs><title>icon-2-2</title><path class="cls-1" d="M235.67,414.71c-36.71,3.11-73.13-7.21-107-17.78C112,391.7,95.34,386.2,78.33,381.6c-8.43-2.28-16.95-4.33-25.59-6-2.21-.41-4.43-.8-6.66-1.15-1.1-.18-2.21-.35-3.32-.51-.35-.05-1.08-.19-1.63-.31-3.5-.56-7.28-.66-10.77-.86-4.39-.25-8.8-.34-13.2-.22-1.83.05-3.66.13-5.48.24-.26,0-.66,0-1.06,0L9.39,373c2.34,71.87,74.1,130.44,163.33,132,84.55,1.46,155.2-48.8,166.48-115.11C305.13,399.53,272,411.64,235.67,414.71Z"/><g id="Group_34" data-name="Group 34"><path id="Path_1" data-name="Path 1" class="cls-2" d="M49,333.31s111.6-200,117.12-231.36c2.08,38.85,7.06,151.85,10.17,227.7A696,696,0,0,0,49,333.31Z"/><path id="Path_2" data-name="Path 2" class="cls-2" d="M229.87,351s-13.05-11.6-25-11.6-80.51-1.24-102.89,5c-6.07,15.23-6.16,15.16-6.16,15.16L229.87,351Z"/><path class="cls-2" d="M110.42,374.61c22.92,6.59,45.56,14.25,68.84,19.55a235,235,0,0,0,34.28,5.48c5.81.45,11.64.65,17.46.54q4.55-.07,9.08-.42c1.53-.11,3-.24,4.57-.4l2.3-.26,1-.12.7-.09c11.38-1.54,22.34-4.67,33.23-8.21,1.24-.4,2.47-.82,3.69-1.25,38.32-41.81,24.64-39.1,24.64-39.1l-182.7,7.88s1.47.51.08,0S52.7,362,52.7,362l-.25.26C72.1,364.44,91.43,369.16,110.42,374.61Z"/><path id="Path_4" data-name="Path 4" class="cls-2" d="M176.25,329.65,49,333.38s-.94.62,0,1.09S177,332.91,177,332.91Z"/><path id="Path_5" data-name="Path 5" class="cls-2" d="M168.17,100.39s31.4,90.15,11.19,212.94c104.13,2.33,125.12,16.32,125.12,16.32S339.45,210.44,168.17,100.39Z"/><path id="Path_6" data-name="Path 6" class="cls-2" d="M165.13,99.15,176,338.76h5.12L168.17,100.39a5.74,5.74,0,0,0-.33-1.83,1.41,1.41,0,0,0-2.71.59Z"/></g><path class="cls-3" d="M32.39,159A238,238,0,0,1,209.18,17.44C338.64-6.12,462.69,79.73,486.25,209.18a237.52,237.52,0,0,1-38.49,178.25"/><path class="cls-3" d="M17.44,294.51A237.12,237.12,0,0,1,32.39,159"/><path class="cls-3" d="M447.76,387.43a237.8,237.8,0,0,1-106.88,85.46"/></svg>