<svg id="Layer_1" data-name="Layer 1" xmlns="http://www.w3.org/2000/svg" viewBox="0 0 542.94 132.75"><defs><style>.cls-1{fill:#01607c;}.cls-2{fill:#fff;}</style></defs><title>icon-in</title><circle id="Ellipse_38-2" data-name="Ellipse 38-2" class="cls-1" cx="66.38" cy="66.38" r="66.38"/><circle id="Ellipse_39-2" data-name="Ellipse 39-2" class="cls-1" cx="271.48" cy="66.38" r="66.38"/><circle id="Ellipse_40-2" data-name="Ellipse 40-2" class="cls-1" cx="476.57" cy="66.38" r="66.38"/><path id="Path_142" data-name="Path 142" class="cls-2" d="M98.14,33.27H39.07a3.66,3.66,0,0,0-3.66,3.67h0V96a3.66,3.66,0,0,0,3.66,3.66h31.8V74H62.22v-10h8.66V56.55c0-8.58,5.23-13.25,12.89-13.25a71.34,71.34,0,0,1,7.73.4v9H86.2c-4.17,0-5,2-5,4.88v6.4h9.92L89.86,74H81.22V99.67H98.14A3.66,3.66,0,0,0,101.8,96V36.94A3.66,3.66,0,0,0,98.14,33.27Z"/><path id="Path_143" data-name="Path 143" class="cls-2" d="M312.33,41.13a33.28,33.28,0,0,1-9.63,2.64,16.8,16.8,0,0,0,7.37-9.27,33.66,33.66,0,0,1-10.64,4.07,16.77,16.77,0,0,0-28.57,15.28,47.57,47.57,0,0,1-34.55-17.51,16.78,16.78,0,0,0,5.18,22.38,16.84,16.84,0,0,1-7.59-2.1,16.78,16.78,0,0,0,13.45,16.65,16.7,16.7,0,0,1-7.57.28,16.77,16.77,0,0,0,15.66,11.64,33.69,33.69,0,0,1-24.82,7,47.42,47.42,0,0,0,25.7,7.53c31.12,0,48.71-26.28,47.65-49.86A34.32,34.32,0,0,0,312.33,41.13Z"/><path id="Path_144" data-name="Path 144" class="cls-2" d="M474.38,39.33c8.86,0,9.9,0,13.4.2,9,.41,13.19,4.67,13.6,13.59.16,3.49.19,4.54.19,13.4s0,9.9-.19,13.4c-.42,8.91-4.6,13.18-13.6,13.59-3.5.16-4.54.19-13.4.19s-9.9,0-13.4-.19c-9-.41-13.18-4.7-13.59-13.6-.16-3.5-.19-4.54-.19-13.4s0-9.9.19-13.4c.41-8.92,4.6-13.18,13.59-13.59C464.48,39.36,465.53,39.33,474.38,39.33Zm0-6c-9,0-10.13,0-13.67.2-12,.55-18.73,7.23-19.28,19.28-.17,3.54-.2,4.67-.2,13.68s0,10.13.2,13.67c.55,12,7.23,18.73,19.28,19.28,3.54.17,4.67.2,13.68.2s10.13,0,13.67-.2c12-.55,18.74-7.23,19.28-19.28.17-3.54.2-4.67.2-13.67s0-10.14-.2-13.68c-.54-12-7.23-18.73-19.28-19.28-3.54-.17-4.67-.2-13.68-.2Zm0,16.13a17,17,0,1,0,17,17h0a17,17,0,0,0-17-17Zm0,28.08a11.06,11.06,0,1,1,11.06-11.06,11.06,11.06,0,0,1-11.06,11.06Zm17.7-32.73a4,4,0,1,0,4,4h0a4,4,0,0,0-4-4Z"/></svg>