<svg id="Layer_1" data-name="Layer 1" xmlns="http://www.w3.org/2000/svg" viewBox="0 0 200.75 232.04"><defs><style>.cls-1{fill:#fff;}</style></defs><title>logo</title><g id="Group_194" data-name="Group 194"><path id="Path_1" data-name="Path 1" class="cls-1" d="M1.51,178.07S85.85,26.89,90,3.22C91.6,32.59,95.36,118,97.71,175.3,47.2,171.78,1.51,178.07,1.51,178.07Z"/><path id="Path_2" data-name="Path 2" class="cls-1" d="M139.84,195s-11.48-12.27-20.52-12.27-60.85-.94-77.76,3.76C37,198,38,200.21,38,200.21l38.05,7.28Z"/><path id="Path_3" data-name="Path 3" class="cls-1" d="M12.19,228.16c5,3.55,82.5,5.59,148.79,2,5.16-.28,14.73-4.65,18.24-8.45C209.56,188.84,199,190.93,199,190.93L63.17,200.2s-1.18-2.93-2.23-3.28-56.62,2.81-56.62,2.81-1.76,1.77-1.06,3.65c-4.11,0-3.17,2.81-3.17,2.81S8.55,225.58,12.19,228.16Z"/><path id="Path_4" data-name="Path 4" class="cls-1" d="M97.71,175.3l-96.2,2.82s-.7.47,0,.82,96.78-1.17,96.78-1.17Z"/><path id="Path_5" data-name="Path 5" class="cls-1" d="M91.6,2.05S115.33,70.18,100.06,163c78.7,1.76,94.55,12.33,94.55,12.33S221,85.21,91.6,2.05Z"/><path id="Path_6" data-name="Path 6" class="cls-1" d="M89.3,1.11,97.36,184h4.11L91.6,2.05A4.32,4.32,0,0,0,91.35.67a1.06,1.06,0,0,0-2,.44Z"/><path id="Path_7" data-name="Path 7" class="cls-1" d="M44.8,217.9s.17-17.8-13.1,5.91C22,206,11,221,11,221s9.13-17.3,20.24-3.42C42.37,203.42,45.8,207.23,44.8,217.9Z"/></g></svg>